<svg width="184" height="180" viewBox="0 0 184 180" fill="none" xmlns="http://www.w3.org/2000/svg">
<ellipse cx="91.9998" cy="90" rx="92" ry="90" fill="#FF7A7A"/>
<path d="M184 90C184 104.187 180.572 118.172 173.995 130.816C167.418 143.46 157.879 154.404 146.156 162.755C134.433 171.106 120.858 176.627 106.539 178.869C92.2189 181.111 77.5604 180.01 63.7587 175.655L91.9998 90H184Z" fill="#00B7C2"/>
<ellipse cx="91.9998" cy="90" rx="67" ry="65" fill="#393E56"/>
<path d="M24.3699 46.08C24.0872 46.08 23.7992 46.0427 23.5059 45.968C23.2125 45.8933 22.9432 45.7787 22.6979 45.624C22.5965 45.56 22.5272 45.4853 22.4899 45.4C22.4579 45.3093 22.4499 45.2213 22.4659 45.136C22.4872 45.0453 22.5272 44.9707 22.5859 44.912C22.6499 44.848 22.7245 44.8107 22.8099 44.8C22.9005 44.7893 22.9992 44.8133 23.1059 44.872C23.3032 44.984 23.5032 45.0693 23.7059 45.128C23.9085 45.1867 24.1245 45.216 24.3539 45.216C24.5779 45.216 24.7699 45.176 24.9299 45.096C25.0899 45.016 25.2125 44.904 25.2979 44.76C25.3832 44.616 25.4259 44.448 25.4259 44.256C25.4259 43.9573 25.3352 43.7173 25.1539 43.536C24.9725 43.3493 24.7245 43.256 24.4099 43.256C24.2392 43.256 24.0739 43.2853 23.9139 43.344C23.7539 43.3973 23.5965 43.4933 23.4419 43.632C23.3939 43.6747 23.3325 43.7173 23.2579 43.76C23.1832 43.7973 23.1032 43.816 23.0179 43.816C22.8845 43.816 22.7832 43.7813 22.7139 43.712C22.6445 43.6427 22.6099 43.5467 22.6099 43.424V40.808C22.6099 40.664 22.6472 40.5547 22.7219 40.48C22.8019 40.4 22.9139 40.36 23.0579 40.36H25.6899C25.8339 40.36 25.9432 40.3973 26.0179 40.472C26.0979 40.5413 26.1379 40.6453 26.1379 40.784C26.1379 40.9173 26.0979 41.0213 26.0179 41.096C25.9432 41.1707 25.8339 41.208 25.6899 41.208H23.6099V43H23.3459C23.4845 42.8133 23.6685 42.6693 23.8979 42.568C24.1272 42.4667 24.3779 42.416 24.6499 42.416C25.0072 42.416 25.3165 42.4933 25.5779 42.648C25.8445 42.7973 26.0499 43.008 26.1939 43.28C26.3432 43.5467 26.4179 43.8587 26.4179 44.216C26.4179 44.584 26.3352 44.9093 26.1699 45.192C26.0045 45.4693 25.7672 45.688 25.4579 45.848C25.1539 46.0027 24.7912 46.08 24.3699 46.08ZM29.1188 46.08C28.6814 46.08 28.3054 46.0187 27.9908 45.896C27.6814 45.768 27.4414 45.584 27.2708 45.344C27.1054 45.104 27.0228 44.816 27.0228 44.48C27.0228 44.2133 27.0761 43.9787 27.1828 43.776C27.2948 43.568 27.4468 43.4 27.6388 43.272C27.8308 43.144 28.0494 43.064 28.2948 43.032V43.2C27.9534 43.1253 27.6788 42.9627 27.4708 42.712C27.2681 42.456 27.1668 42.152 27.1668 41.8C27.1668 41.48 27.2468 41.208 27.4068 40.984C27.5668 40.7547 27.7934 40.5813 28.0868 40.464C28.3801 40.3413 28.7241 40.28 29.1188 40.28C29.5188 40.28 29.8654 40.3413 30.1588 40.464C30.4521 40.5813 30.6788 40.7547 30.8388 40.984C30.9988 41.208 31.0788 41.48 31.0788 41.8C31.0788 42.0347 31.0308 42.2507 30.9348 42.448C30.8441 42.6453 30.7134 42.808 30.5428 42.936C30.3774 43.064 30.1828 43.1493 29.9588 43.192V43.032C30.3321 43.0853 30.6334 43.2427 30.8628 43.504C31.0974 43.76 31.2148 44.0853 31.2148 44.48C31.2148 44.816 31.1294 45.104 30.9588 45.344C30.7934 45.584 30.5534 45.768 30.2388 45.896C29.9294 46.0187 29.5561 46.08 29.1188 46.08ZM29.1188 45.28C29.4974 45.28 29.7828 45.208 29.9748 45.064C30.1668 44.9147 30.2628 44.696 30.2628 44.408C30.2628 44.12 30.1668 43.904 29.9748 43.76C29.7828 43.616 29.4974 43.544 29.1188 43.544C28.7454 43.544 28.4601 43.616 28.2628 43.76C28.0708 43.904 27.9748 44.12 27.9748 44.408C27.9748 44.696 28.0708 44.9147 28.2628 45.064C28.4601 45.208 28.7454 45.28 29.1188 45.28ZM29.1188 42.744C29.3321 42.744 29.5134 42.712 29.6628 42.648C29.8121 42.5787 29.9268 42.48 30.0068 42.352C30.0868 42.224 30.1268 42.0747 30.1268 41.904C30.1268 41.648 30.0361 41.448 29.8548 41.304C29.6788 41.1547 29.4334 41.08 29.1188 41.08C28.8041 41.08 28.5588 41.1547 28.3828 41.304C28.2068 41.448 28.1188 41.648 28.1188 41.904C28.1188 42.1653 28.2068 42.3707 28.3828 42.52C28.5588 42.6693 28.8041 42.744 29.1188 42.744ZM34.1476 45.936C34.0943 46.032 34.0276 46.0933 33.9476 46.12C33.873 46.152 33.7956 46.1573 33.7156 46.136C33.641 46.12 33.577 46.0827 33.5236 46.024C33.4703 45.9707 33.4383 45.904 33.4276 45.824C33.417 45.7387 33.4383 45.648 33.4916 45.552L36.4436 40.432C36.497 40.336 36.561 40.272 36.6356 40.24C36.7156 40.208 36.793 40.2027 36.8676 40.224C36.9423 40.24 37.0063 40.2773 37.0596 40.336C37.113 40.3947 37.145 40.4667 37.1556 40.552C37.1716 40.632 37.153 40.7173 37.0996 40.808L34.1476 45.936ZM33.2916 43.728C32.8436 43.728 32.4943 43.5733 32.2436 43.264C31.993 42.9547 31.8676 42.5333 31.8676 42C31.8676 41.6427 31.9236 41.336 32.0356 41.08C32.1476 40.824 32.3103 40.6267 32.5236 40.488C32.737 40.3493 32.993 40.28 33.2916 40.28C33.7396 40.28 34.089 40.4347 34.3396 40.744C34.5903 41.048 34.7156 41.4667 34.7156 42C34.7156 42.3573 34.6596 42.6667 34.5476 42.928C34.4356 43.184 34.273 43.3813 34.0596 43.52C33.8463 43.6587 33.5903 43.728 33.2916 43.728ZM33.2916 43.056C33.4196 43.056 33.529 43.0187 33.6196 42.944C33.7103 42.864 33.7796 42.7467 33.8276 42.592C33.8756 42.4373 33.8996 42.24 33.8996 42C33.8996 41.6427 33.8463 41.3787 33.7396 41.208C33.633 41.0373 33.4836 40.952 33.2916 40.952C33.1636 40.952 33.0543 40.9893 32.9636 41.064C32.873 41.1387 32.8036 41.2533 32.7556 41.408C32.7076 41.5627 32.6836 41.76 32.6836 42C32.6836 42.3627 32.737 42.6293 32.8436 42.8C32.9503 42.9707 33.0996 43.056 33.2916 43.056ZM37.3076 46.08C36.8596 46.08 36.5103 45.9253 36.2596 45.616C36.009 45.3067 35.8836 44.8853 35.8836 44.352C35.8836 43.9947 35.9396 43.688 36.0516 43.432C36.1636 43.176 36.3263 42.9787 36.5396 42.84C36.753 42.7013 37.009 42.632 37.3076 42.632C37.7556 42.632 38.105 42.7867 38.3556 43.096C38.6063 43.4 38.7316 43.8187 38.7316 44.352C38.7316 44.7093 38.6756 45.0187 38.5636 45.28C38.4516 45.536 38.289 45.7333 38.0756 45.872C37.8623 46.0107 37.6063 46.08 37.3076 46.08ZM37.3076 45.408C37.4356 45.408 37.545 45.3707 37.6356 45.296C37.7263 45.2213 37.7956 45.1067 37.8436 44.952C37.8916 44.792 37.9156 44.592 37.9156 44.352C37.9156 43.9947 37.8623 43.7307 37.7556 43.56C37.649 43.3893 37.4996 43.304 37.3076 43.304C37.1796 43.304 37.0703 43.3413 36.9796 43.416C36.889 43.4907 36.8196 43.6053 36.7716 43.76C36.7236 43.9147 36.6996 44.112 36.6996 44.352C36.6996 44.7147 36.753 44.9813 36.8596 45.152C36.9663 45.3227 37.1156 45.408 37.3076 45.408Z" fill="white"/>
<path d="M136.226 154.064C136.066 154.064 135.94 154.021 135.85 153.936C135.759 153.845 135.714 153.717 135.714 153.552V152.928H133.738C133.572 152.928 133.439 152.893 133.338 152.824C133.242 152.755 133.194 152.645 133.194 152.496C133.194 152.411 133.215 152.317 133.258 152.216C133.306 152.115 133.388 151.981 133.506 151.816L135.698 148.64C135.772 148.528 135.855 148.443 135.946 148.384C136.036 148.325 136.14 148.296 136.258 148.296C136.396 148.296 136.511 148.339 136.602 148.424C136.692 148.504 136.738 148.632 136.738 148.808V152.08H137.13C137.284 152.08 137.399 152.117 137.474 152.192C137.554 152.261 137.594 152.365 137.594 152.504C137.594 152.643 137.554 152.749 137.474 152.824C137.399 152.893 137.284 152.928 137.13 152.928H136.738V153.552C136.738 153.717 136.692 153.845 136.602 153.936C136.511 154.021 136.386 154.064 136.226 154.064ZM135.714 152.08V149.584H135.946L134.058 152.352V152.08H135.714ZM138.783 154C138.612 154 138.487 153.963 138.407 153.888C138.332 153.808 138.295 153.693 138.295 153.544C138.295 153.453 138.319 153.365 138.367 153.28C138.415 153.195 138.484 153.104 138.575 153.008L140.183 151.296C140.428 151.04 140.604 150.808 140.711 150.6C140.817 150.387 140.871 150.173 140.871 149.96C140.871 149.693 140.785 149.491 140.615 149.352C140.449 149.213 140.207 149.144 139.887 149.144C139.705 149.144 139.524 149.171 139.343 149.224C139.161 149.272 138.977 149.357 138.791 149.48C138.695 149.544 138.604 149.571 138.519 149.56C138.439 149.549 138.367 149.515 138.303 149.456C138.244 149.397 138.204 149.325 138.183 149.24C138.161 149.155 138.164 149.069 138.191 148.984C138.223 148.893 138.287 148.816 138.383 148.752C138.612 148.597 138.868 148.48 139.151 148.4C139.439 148.32 139.727 148.28 140.015 148.28C140.42 148.28 140.761 148.341 141.039 148.464C141.316 148.587 141.527 148.765 141.671 149C141.815 149.235 141.887 149.52 141.887 149.856C141.887 150.08 141.849 150.299 141.775 150.512C141.705 150.725 141.596 150.941 141.447 151.16C141.303 151.379 141.113 151.611 140.879 151.856L139.375 153.424V153.152H141.727C141.871 153.152 141.98 153.187 142.055 153.256C142.129 153.325 142.167 153.429 142.167 153.568C142.167 153.707 142.129 153.813 142.055 153.888C141.98 153.963 141.871 154 141.727 154H138.783ZM145.147 153.936C145.094 154.032 145.027 154.093 144.947 154.12C144.873 154.152 144.795 154.157 144.715 154.136C144.641 154.12 144.577 154.083 144.523 154.024C144.47 153.971 144.438 153.904 144.427 153.824C144.417 153.739 144.438 153.648 144.491 153.552L147.443 148.432C147.497 148.336 147.561 148.272 147.635 148.24C147.715 148.208 147.793 148.203 147.867 148.224C147.942 148.24 148.006 148.277 148.059 148.336C148.113 148.395 148.145 148.467 148.155 148.552C148.171 148.632 148.153 148.717 148.099 148.808L145.147 153.936ZM144.291 151.728C143.843 151.728 143.494 151.573 143.243 151.264C142.993 150.955 142.867 150.533 142.867 150C142.867 149.643 142.923 149.336 143.035 149.08C143.147 148.824 143.31 148.627 143.523 148.488C143.737 148.349 143.993 148.28 144.291 148.28C144.739 148.28 145.089 148.435 145.339 148.744C145.59 149.048 145.715 149.467 145.715 150C145.715 150.357 145.659 150.667 145.547 150.928C145.435 151.184 145.273 151.381 145.059 151.52C144.846 151.659 144.59 151.728 144.291 151.728ZM144.291 151.056C144.419 151.056 144.529 151.019 144.619 150.944C144.71 150.864 144.779 150.747 144.827 150.592C144.875 150.437 144.899 150.24 144.899 150C144.899 149.643 144.846 149.379 144.739 149.208C144.633 149.037 144.483 148.952 144.291 148.952C144.163 148.952 144.054 148.989 143.963 149.064C143.873 149.139 143.803 149.253 143.755 149.408C143.707 149.563 143.683 149.76 143.683 150C143.683 150.363 143.737 150.629 143.843 150.8C143.95 150.971 144.099 151.056 144.291 151.056ZM148.307 154.08C147.859 154.08 147.51 153.925 147.259 153.616C147.009 153.307 146.883 152.885 146.883 152.352C146.883 151.995 146.939 151.688 147.051 151.432C147.163 151.176 147.326 150.979 147.539 150.84C147.753 150.701 148.009 150.632 148.307 150.632C148.755 150.632 149.105 150.787 149.355 151.096C149.606 151.4 149.731 151.819 149.731 152.352C149.731 152.709 149.675 153.019 149.563 153.28C149.451 153.536 149.289 153.733 149.075 153.872C148.862 154.011 148.606 154.08 148.307 154.08ZM148.307 153.408C148.435 153.408 148.545 153.371 148.635 153.296C148.726 153.221 148.795 153.107 148.843 152.952C148.891 152.792 148.915 152.592 148.915 152.352C148.915 151.995 148.862 151.731 148.755 151.56C148.649 151.389 148.499 151.304 148.307 151.304C148.179 151.304 148.07 151.341 147.979 151.416C147.889 151.491 147.819 151.605 147.771 151.76C147.723 151.915 147.699 152.112 147.699 152.352C147.699 152.715 147.753 152.981 147.859 153.152C147.966 153.323 148.115 153.408 148.307 153.408Z" fill="white"/>
</svg>
